<svg xmlns="http://www.w3.org/2000/svg" viewBox="0 0 16.57 24"><defs><style>.cls-1{fill:#3e2ad1;}</style></defs><title>backward</title><g id="Слой_2" data-name="Слой 2"><g id="Icons"><path id="Backward" class="cls-1" d="M15.07,24H11.22a1.5,1.5,0,0,1-1.11-.49L.26,12.67a1,1,0,0,1,0-1.35L10.11.49A1.51,1.51,0,0,1,11.22,0h2.93a1.5,1.5,0,0,1,1.31,2.23l-4.59,8.26a1,1,0,1,1-1.75-1L13.3,2H11.44L2.35,12l9.09,10h2.69l-5-7.45a1,1,0,1,1,1.66-1.11l5.48,8.22A1.5,1.5,0,0,1,15.07,24Zm-.42-1.22h0Z"/></g></g></svg>