<svg xmlns="http://www.w3.org/2000/svg" viewBox="0 0 18 24"><defs><style>.cls-1{fill:#3e2ad1;}</style></defs><title>location</title><g id="Слой_2" data-name="Слой 2"><g id="Icons"><path id="Location" class="cls-1" d="M9,12a4,4,0,1,1,4-4A4,4,0,0,1,9,12ZM9,6a2,2,0,1,0,2,2A2,2,0,0,0,9,6Zm.56,17.83a1,1,0,0,0,.27-1.39C2.44,11.48,2,10.67,2,8,2,5.59,3.86,2,9,2s7,3.59,7,6c0,2.21-.19,3-5.16,10.47a1,1,0,0,0,1.66,1.11C17.33,12.34,18,10.94,18,8c0-3.09-2.44-8-9-8S0,4.91,0,8c0,3.34.69,4.47,8.17,15.56a1,1,0,0,0,1.39.27Z"/></g></g></svg>